<?xml version="1.0" encoding="utf-8"?>
<svg width="256px" height="256px" viewBox="0 0 1024 1024" version="1.1" xmlns="http://www.w3.org/2000/svg"><path d="M587.410286 553.837714L709.266286 680.96a30.061714 30.061714 0 0 1-43.958857 40.96L541.110857 592.457143a180.443429 180.443429 0 1 1 46.299429-38.546286z m-136.923429 2.852572a120.246857 120.246857 0 1 0 0-240.566857 120.246857 120.246857 0 0 0 0 240.566857z m409.088 189.366857l-0.585143-0.365714a32.914286 32.914286 0 0 1-8.045714-46.445715 412.013714 412.013714 0 1 0-141.897143 145.846857c14.628571-8.996571 33.645714-5.12 43.666286 8.777143l0.146286 0.073143a30.427429 30.427429 0 0 1-7.972572 43.227429l-6.144 4.022857a475.428571 475.428571 0 1 1 163.693714-164.498286 29.988571 29.988571 0 0 1-42.861714 9.362286z" fill="#000000" /></svg>
